<?xml version="1.0" standalone="no"?><!DOCTYPE svg PUBLIC "-//W3C//DTD SVG 1.1//EN" "http://www.w3.org/Graphics/SVG/1.1/DTD/svg11.dtd"><svg t="1640745121264" class="icon" viewBox="0 0 1047 1024" version="1.1" xmlns="http://www.w3.org/2000/svg" p-id="2293" xmlns:xlink="http://www.w3.org/1999/xlink" width="130.875" height="128"><defs><style type="text/css"></style></defs><path d="M243.512195 0l-208.130081 0C16.650407 0 2.081301 14.569106 2.081301 35.382114l0 203.96748c0 18.731707 14.569106 35.382114 35.382114 35.382114l208.130081 0c18.731707 0 35.382114-14.569106 35.382114-35.382114L280.97561 35.382114C278.894309 14.569106 264.325203 0 243.512195 0M243.512195 376.715447l-208.130081 0c-18.731707 0-35.382114 14.569106-35.382114 35.382114l0 199.804878C2.081301 628.552846 16.650407 645.203252 37.463415 645.203252l208.130081 0c18.731707 0 35.382114-14.569106 35.382114-35.382114l0-199.804878C278.894309 391.284553 264.325203 376.715447 243.512195 376.715447M243.512195 749.268293l-208.130081 0C16.650407 749.268293 2.081301 763.837398 2.081301 782.569106l0 203.96748c0 18.731707 14.569106 35.382114 35.382114 35.382114l208.130081 0c18.731707 0 35.382114-14.569106 35.382114-35.382114l0-203.96748C278.894309 763.837398 264.325203 749.268293 243.512195 749.268293M1009.430894 0 410.01626 0c-18.731707 0-35.382114 14.569106-35.382114 35.382114l0 203.96748c0 18.731707 14.569106 35.382114 35.382114 35.382114l601.495935 0c18.731707 0 35.382114-14.569106 35.382114-35.382114L1046.894309 35.382114C1044.813008 14.569106 1028.162602 0 1009.430894 0M1009.430894 376.715447 410.01626 376.715447c-18.731707 0-35.382114 14.569106-35.382114 35.382114l0 199.804878c0 18.731707 14.569106 35.382114 35.382114 35.382114l601.495935 0c18.731707 0 35.382114-14.569106 35.382114-35.382114l0-199.804878C1044.813008 391.284553 1028.162602 376.715447 1009.430894 376.715447M1009.430894 749.268293 410.01626 749.268293c-18.731707 0-35.382114 14.569106-35.382114 35.382114l0 203.96748c0 18.731707 14.569106 35.382114 35.382114 35.382114l601.495935 0c18.731707 0 35.382114-14.569106 35.382114-35.382114l0-203.96748C1044.813008 763.837398 1028.162602 749.268293 1009.430894 749.268293" p-id="2294" fill="#0d6efd"></path></svg>